<?xml version="1.0" standalone="no"?>
<!DOCTYPE svg PUBLIC "-//W3C//DTD SVG 20010904//EN"
 "http://www.w3.org/TR/2001/REC-SVG-20010904/DTD/svg10.dtd">
<svg version="1.0" xmlns="http://www.w3.org/2000/svg"
 width="1024.000000pt" height="1024.000000pt" viewBox="0 0 1024.000000 1024.000000"
 preserveAspectRatio="xMidYMid meet">
<metadata>
Created by potrace 1.11, written by Peter Selinger 2001-2013
</metadata>
<g transform="translate(0.000000,1024.000000) scale(0.100000,-0.100000)"
fill="#000000" stroke="none">
<path d="M2595 8360 c-3 -5 -19 -10 -35 -10 -102 0 -419 -394 -561 -697 -68
-144 -149 -412 -149 -491 l0 -27 16 30 c8 16 13 37 11 47 -3 9 6 38 19 64 13
26 24 53 24 60 0 7 9 29 21 48 11 19 20 43 19 53 -1 10 -2 25 -1 33 1 12 3 12
10 2 10 -16 41 53 42 96 0 15 3 21 6 15 8 -21 18 -15 49 30 l31 43 -30 -4
c-22 -4 -28 -1 -25 9 3 9 17 13 40 11 l35 -3 -1 48 c-1 46 1 49 37 66 20 10
37 25 37 32 0 8 6 18 14 22 7 4 25 36 41 70 24 55 31 62 59 65 23 2 30 7 28
21 -2 10 3 17 13 17 8 0 15 4 15 9 0 4 13 22 29 38 16 17 32 45 36 63 5 25 11
31 26 27 11 -3 19 0 19 7 0 17 50 69 88 91 17 10 35 29 41 42 6 12 15 23 20
23 15 0 22 32 10 46 -14 17 -25 18 -34 4z"/>
<path d="M3294 8325 c-78 -17 -168 -53 -241 -96 -67 -41 -229 -192 -305 -286
-214 -263 -364 -607 -424 -969 -27 -160 -25 -403 4 -554 12 -63 26 -155 32
-205 26 -219 218 -858 342 -1140 54 -123 124 -236 198 -320 34 -38 70 -88 80
-110 22 -48 42 -191 70 -495 11 -124 23 -237 26 -252 4 -21 0 -30 -21 -44 -22
-14 -30 -15 -50 -4 -25 13 -42 13 -315 -9 -53 -4 -102 -11 -109 -15 -8 -5 -28
-10 -45 -11 -17 -2 -74 -6 -126 -10 -52 -3 -126 -13 -165 -21 -38 -8 -126 -19
-194 -25 -184 -15 -589 -95 -649 -129 -9 -5 -98 -30 -197 -56 -99 -25 -194
-52 -212 -61 -56 -26 -54 -69 3 -60 l34 6 -16 -31 c-26 -50 4 -118 51 -118 15
0 25 -8 28 -21 4 -17 11 -20 29 -16 13 3 32 -1 42 -9 11 -8 31 -14 46 -14 14
0 33 -9 43 -20 17 -20 26 -22 109 -24 28 -1 44 3 41 9 -2 5 2 2 9 -7 11 -12
24 -15 54 -11 34 4 40 2 49 -19 9 -21 15 -23 66 -20 39 3 59 -1 67 -11 15 -17
80 -7 93 14 4 8 11 10 15 6 4 -3 1 -13 -6 -22 -10 -12 -9 -16 4 -21 9 -3 22
-4 30 -1 8 3 17 1 19 -6 3 -9 10 -9 26 1 18 11 24 10 37 -3 9 -8 24 -15 34
-15 11 0 29 -11 42 -24 25 -26 100 -42 91 -19 -3 7 0 13 5 13 6 0 14 -9 17
-20 4 -11 10 -18 14 -16 4 3 26 -4 48 -15 46 -22 129 -34 138 -19 11 18 27 11
20 -9 -5 -15 0 -21 24 -26 17 -4 35 -4 40 -1 5 4 12 2 16 -4 3 -5 15 -10 25
-10 10 0 31 -6 47 -14 64 -33 112 -48 131 -42 12 4 26 1 33 -7 7 -7 23 -11 36
-9 14 3 32 -3 44 -14 16 -14 22 -15 28 -5 6 9 16 4 39 -18 18 -18 41 -31 56
-31 13 0 27 -4 31 -10 3 -5 12 -7 21 -3 8 3 25 -4 37 -15 33 -31 91 -52 163
-59 49 -4 68 -11 79 -26 15 -21 35 -15 35 11 1 15 2 15 15 -1 16 -22 78 -57
100 -57 9 0 18 -7 21 -15 6 -15 44 -29 109 -40 22 -4 46 -11 53 -17 6 -6 12
-7 12 -3 0 4 7 2 15 -5 8 -6 23 -9 33 -6 12 4 24 0 33 -10 12 -15 14 -14 20 3
6 16 8 15 17 -7 l11 -25 2 30 c1 25 2 26 6 7 3 -13 -1 -29 -7 -37 -9 -11 -1
-15 42 -24 74 -14 111 -17 126 -8 8 6 12 2 12 -12 0 -27 15 -34 41 -21 18 10
26 7 59 -25 32 -31 43 -36 77 -34 21 2 44 0 50 -4 6 -4 14 -3 18 3 12 19 27
-2 21 -31 -4 -22 -2 -27 10 -22 8 3 21 -3 29 -13 8 -11 14 -14 15 -6 0 21 19
13 26 -12 6 -25 54 -43 65 -24 9 15 49 -1 49 -19 0 -9 6 -13 15 -9 9 3 15 0
15 -8 0 -16 43 -30 48 -16 7 19 42 11 42 -9 0 -10 6 -24 14 -30 11 -9 15 -6
20 14 8 32 26 28 44 -8 11 -22 17 -25 42 -20 17 3 36 0 44 -6 10 -8 16 -9 21
-1 10 16 25 12 25 -7 0 -10 7 -26 14 -35 14 -20 46 -24 46 -7 0 13 39 2 62
-18 10 -9 28 -13 43 -11 14 3 30 -1 36 -9 7 -8 20 -11 31 -7 12 3 27 -1 38
-11 11 -10 31 -16 52 -14 18 1 50 -5 71 -14 20 -10 74 -20 119 -23 45 -3 93
-10 106 -15 13 -5 34 -9 48 -9 13 0 24 -5 24 -11 0 -7 9 -9 21 -6 12 3 31 0
43 -7 11 -8 55 -19 96 -25 41 -7 120 -30 174 -52 120 -48 130 -46 250 45 154
117 312 214 768 467 372 207 507 288 757 456 199 134 327 210 337 200 3 -2 -9
-57 -26 -121 -45 -175 -38 -279 21 -339 25 -25 36 -29 64 -24 73 12 170 102
309 287 43 56 103 147 134 201 31 54 61 99 66 99 4 0 6 -17 4 -37 -7 -53 17
-128 49 -152 82 -65 200 35 315 268 24 47 45 88 47 91 2 3 11 -6 19 -20 37
-56 69 -80 108 -80 31 0 45 8 84 48 78 78 114 202 130 450 19 293 13 398 -36
659 -6 34 -102 54 -142 30 -6 -4 -19 4 -30 17 -22 28 -66 43 -77 26 -5 -8 -11
-8 -21 1 -13 11 -13 9 -2 -15 21 -48 -3 -56 -151 -50 -246 10 -521 89 -656
189 -16 12 -54 35 -84 51 -104 56 -188 183 -179 273 14 144 178 303 461 446
94 47 99 49 125 34 45 -25 37 -76 -14 -83 -9 -1 -29 -13 -43 -25 -22 -19 -193
-121 -262 -156 -10 -5 -19 -15 -19 -22 0 -7 -27 -42 -60 -79 -65 -72 -75 -106
-45 -163 49 -97 314 -247 514 -292 66 -15 266 -39 326 -39 27 0 56 -4 64 -9 9
-6 22 -4 37 5 12 8 54 18 93 21 39 3 71 9 71 14 0 20 -57 162 -95 239 -89 178
-330 514 -479 668 -274 285 -599 537 -1001 779 -358 216 -649 333 -1092 441
-106 26 -193 52 -193 57 0 6 37 35 81 65 137 92 123 86 154 64 58 -40 67 -43
163 -38 52 2 101 9 108 15 11 9 14 7 14 -8 0 -10 -5 -24 -12 -31 -9 -9 -9 -12
-1 -12 7 0 15 5 18 10 4 6 11 8 16 4 5 -3 31 10 57 29 26 19 73 49 104 67 49
27 59 38 69 72 6 25 17 42 29 45 11 3 22 14 25 24 4 10 11 19 16 19 5 0 9 11
9 25 0 18 5 25 20 25 24 0 37 44 46 162 7 86 6 88 -17 97 -17 7 -19 10 -6 10
11 1 17 9 17 26 0 14 5 25 10 25 25 0 -21 317 -47 333 -9 5 -11 16 -7 29 8 26
-15 69 -35 66 -9 -2 -16 2 -16 7 -3 39 -19 74 -35 78 -11 3 -25 19 -32 36 -18
43 -137 142 -228 190 -101 53 -204 81 -325 88 -87 5 -115 2 -210 -21 -115 -28
-155 -46 -155 -72 0 -11 -6 -13 -21 -9 -17 6 -32 -4 -71 -41 -88 -87 -126
-168 -143 -301 -4 -29 -10 -53 -14 -53 -5 0 -16 10 -27 21 -55 62 -160 75
-245 31 -106 -55 -157 -166 -125 -274 18 -62 48 -105 82 -118 36 -14 30 -42
-25 -123 -27 -40 -59 -93 -72 -119 -13 -27 -25 -48 -28 -48 -4 0 -49 62 -101
138 -143 207 -340 395 -671 640 -140 103 -342 233 -437 281 -219 110 -492 157
-678 116z m235 -259 c10 -12 8 -17 -9 -26 -12 -6 -28 -9 -36 -6 -8 3 -14 -1
-14 -8 0 -7 -13 -16 -28 -19 -16 -3 -55 -21 -88 -41 -32 -19 -74 -37 -91 -41
-18 -4 -37 -14 -43 -23 -7 -13 -9 -13 -10 -3 0 11 -6 9 -22 -6 -34 -30 -136
-93 -152 -93 -8 0 -16 -6 -19 -12 -3 -10 -7 -10 -19 0 -14 11 -23 7 -64 -27
-98 -81 -112 -91 -123 -91 -6 0 -11 -4 -11 -8 0 -5 -11 -14 -25 -20 -34 -16
-31 -1 8 42 55 61 249 180 222 136 -3 -5 -2 -10 4 -10 5 0 13 9 16 21 4 11 19
26 33 32 15 6 61 32 102 56 106 62 311 160 336 161 12 0 27 -6 33 -14z m546
-208 c14 -14 45 -33 70 -42 41 -16 50 -26 46 -48 0 -5 4 -8 9 -8 6 0 10 -4 10
-10 0 -17 -28 -11 -66 15 -40 28 -95 41 -121 30 -28 -12 -105 -27 -138 -27
-16 0 -61 -12 -100 -28 -38 -16 -127 -49 -198 -75 -70 -25 -160 -63 -200 -85
-39 -21 -94 -42 -120 -45 -27 -4 -51 -14 -54 -21 -3 -8 -16 -14 -29 -14 -15 0
-22 -5 -18 -13 3 -9 -20 -25 -68 -47 -40 -18 -86 -44 -101 -57 -16 -12 -35
-23 -43 -23 -7 0 -21 -11 -30 -25 -9 -14 -21 -25 -26 -25 -6 0 -20 -10 -32
-23 -11 -13 -45 -40 -75 -61 -41 -29 -56 -35 -62 -25 -4 8 -10 11 -12 9 -25
-32 -57 -79 -57 -85 0 -4 30 -5 68 -3 71 6 249 60 358 108 35 16 64 25 64 20
0 -6 21 6 46 25 47 36 83 50 106 43 7 -3 21 8 30 24 10 16 39 42 65 58 27 16
66 43 89 59 23 17 47 31 55 32 8 0 1 7 -16 14 -16 7 -34 10 -40 5 -5 -4 -39
-10 -74 -14 -50 -5 -70 -12 -96 -35 -51 -44 -108 -56 -74 -15 20 24 224 124
273 133 44 8 85 -1 98 -22 15 -23 9 -94 -9 -108 -15 -12 -16 -12 -10 6 8 23 5
20 -67 -73 -31 -39 -43 -49 -53 -40 -10 8 -13 7 -13 -5 0 -25 -30 -50 -45 -37
-10 8 -21 3 -43 -20 -17 -16 -40 -30 -51 -30 -14 0 -25 -10 -33 -27 l-11 -28
-6 25 c-7 24 -7 23 -41 -19 -46 -57 -140 -105 -140 -71 0 6 -9 5 -25 -2 -13
-6 -23 -15 -22 -21 1 -6 -18 -14 -42 -18 -24 -5 -64 -18 -89 -30 -25 -13 -64
-23 -86 -23 -23 -1 -47 -7 -54 -13 -16 -16 -29 -16 -115 1 -79 15 -113 41
-102 76 12 39 215 233 310 297 266 178 714 399 900 444 58 14 62 15 95 35 18
10 47 13 108 10 71 -3 85 -7 107 -28z m1872 -90 c63 -99 166 -199 296 -287
132 -89 177 -127 177 -151 0 -20 -120 -209 -133 -209 -5 -1 -11 7 -14 17 -6
23 -59 56 -79 48 -8 -3 -14 -19 -14 -40 0 -27 7 -40 30 -58 20 -16 29 -30 25
-40 -9 -24 -174 -144 -239 -174 -46 -21 -74 -27 -128 -27 -66 0 -148 25 -148
44 0 5 -22 31 -49 58 -45 45 -51 57 -66 128 -21 94 -23 97 -42 81 -12 -10 -14
-29 -11 -91 4 -69 10 -88 51 -167 38 -72 50 -108 63 -187 8 -53 26 -131 40
-173 32 -97 134 -284 157 -288 26 -5 22 16 -33 159 -48 123 -90 270 -90 315 0
20 2 20 63 8 34 -8 81 -14 103 -14 l42 0 -11 -41 c-7 -28 -7 -74 0 -143 5 -55
7 -153 4 -216 -6 -114 -7 -116 -62 -231 -58 -120 -110 -189 -163 -216 -35 -18
-132 -20 -192 -4 -22 6 -68 28 -101 50 -96 62 -161 154 -228 321 -56 139 -75
247 -75 425 0 137 2 154 24 201 13 29 40 70 60 92 27 29 36 48 36 75 0 27 19
63 89 168 146 218 511 639 554 639 10 0 35 -28 64 -72z m-418 -29 c17 -6 36
-20 42 -31 9 -18 0 -31 -78 -109 -106 -106 -124 -111 -185 -49 -34 34 -39 44
-34 67 11 42 67 93 127 114 63 22 85 23 128 8z m-1325 -15 c9 -3 16 -13 16
-20 0 -8 7 -17 15 -20 25 -10 17 -48 -16 -80 -17 -16 -50 -59 -74 -95 -50 -76
-97 -119 -129 -119 -12 0 -33 -11 -46 -25 -13 -14 -31 -25 -40 -25 -9 0 -21
-5 -28 -12 -9 -9 -12 -7 -12 10 0 12 12 29 28 39 15 10 66 57 113 104 67 68
91 99 108 145 46 119 39 108 65 98z m-324 -399 c0 -9 -9 -15 -21 -15 -18 0
-19 2 -9 15 7 8 16 15 21 15 5 0 9 -7 9 -15z m-230 -50 c57 -29 82 -31 100
-10 7 8 27 15 44 15 l31 -1 -27 -22 c-36 -29 -35 -49 1 -95 62 -78 105 -272
141 -641 11 -113 34 -298 50 -411 41 -289 46 -353 28 -368 -17 -14 -172 -63
-208 -65 -22 -2 -31 11 -87 123 -34 69 -62 128 -62 133 -1 4 10 12 24 17 32
12 48 51 34 86 -13 36 -52 81 -65 77 -15 -5 -30 16 -42 59 -7 25 -7 38 0 40
17 6 -24 118 -43 118 -23 0 -51 35 -47 57 3 14 7 11 21 -14 10 -18 22 -33 27
-33 13 0 13 6 -4 43 -8 18 -16 46 -19 62 -3 17 -21 66 -41 111 -36 81 -41 108
-65 347 -8 72 -21 117 -21 69 0 -15 -10 -24 -37 -33 -21 -7 -51 -20 -68 -30
-16 -11 -38 -19 -47 -19 -10 0 -18 -4 -18 -10 0 -5 -6 -7 -14 -4 -7 3 -20 -2
-29 -10 -8 -9 -34 -20 -57 -25 -23 -5 -49 -16 -58 -24 -34 -29 -61 -38 -82
-27 -12 6 -20 7 -20 1 0 -5 6 -11 12 -13 7 -3 0 -12 -17 -21 -49 -26 -67 -34
-130 -52 -33 -9 -69 -21 -80 -26 -11 -4 -51 -10 -90 -13 -92 -7 -106 -9 -132
-24 -32 -17 -74 -14 -103 8 -36 27 -20 38 92 60 135 28 255 64 388 117 165 65
415 187 458 223 20 17 43 35 50 41 20 16 14 45 -13 63 -16 10 -25 26 -25 42 0
14 4 23 9 19 5 -3 13 4 16 16 5 15 13 20 30 16 22 -4 23 -1 18 24 l-5 29 66 0
c51 0 78 -6 116 -25z m3281 -92 c-8 -15 -10 -15 -11 -2 0 17 10 32 18 25 2 -3
-1 -13 -7 -23z m-316 -283 c-10 -11 -20 -18 -23 -15 -7 6 18 35 31 35 5 0 2
-9 -8 -20z m-3225 -26 c0 -8 -4 -14 -10 -14 -5 0 -10 9 -10 21 0 11 5 17 10
14 6 -3 10 -13 10 -21z m30 -185 c0 -11 -4 -17 -10 -14 -5 3 -10 13 -10 21 0
8 5 14 10 14 6 0 10 -9 10 -21z m30 -22 c0 -5 -4 -5 -10 -2 -5 3 -10 14 -10
23 0 15 2 15 10 2 5 -8 10 -19 10 -23z m3160 -172 c7 -9 11 -17 9 -19 -2 -1
-46 -28 -97 -59 -50 -32 -113 -73 -139 -93 -66 -50 -183 -108 -195 -96 -18 18
11 52 105 120 206 152 283 188 317 147z m-1880 -15 c21 -21 26 -65 10 -90 -7
-11 -10 -8 -10 16 0 55 -21 61 -93 25 -77 -38 -111 -65 -212 -166 -45 -44
-109 -104 -143 -134 -43 -38 -62 -61 -62 -77 0 -15 -6 -24 -15 -24 -22 0 -19
38 6 85 29 53 169 205 244 265 83 65 183 120 223 120 19 0 40 -8 52 -20z
m2274 -128 c50 -34 55 -50 19 -57 -15 -3 -55 -14 -88 -25 -33 -11 -69 -20 -80
-20 -24 0 -165 -68 -165 -80 0 -9 35 -20 67 -20 11 0 60 21 108 46 121 64 218
95 266 88 22 -4 39 -11 39 -17 0 -7 4 -7 12 1 14 14 38 -2 38 -24 0 -17 -16
-19 -25 -3 -5 7 -11 5 -18 -4 -7 -8 -74 -29 -150 -48 -114 -28 -133 -35 -110
-41 32 -9 231 7 283 22 62 18 114 13 140 -14 26 -29 22 -68 -6 -46 -12 11 -20
9 -45 -9 -55 -41 -257 -78 -274 -51 -5 8 -11 8 -20 0 -17 -14 -253 -8 -307 7
-69 20 -128 54 -134 78 -8 31 18 78 60 110 49 37 227 114 289 124 29 5 54 9
57 9 3 1 23 -11 44 -26z m-3423 -115 c-7 -7 -15 -6 -26 3 -24 20 -18 31 10 18
17 -8 22 -15 16 -21z m-1 -32 c0 -8 -4 -15 -10 -15 -5 0 -10 7 -10 15 0 8 5
15 10 15 6 0 10 -7 10 -15z m3819 -26 c11 -19 11 -21 -4 -15 -9 3 -19 6 -21 6
-2 0 -4 7 -4 15 0 21 13 19 29 -6z m-4799 -69 c86 -23 670 -123 833 -141 60
-7 115 -18 123 -23 7 -6 34 -63 58 -126 24 -63 78 -193 120 -288 42 -96 99
-229 125 -295 27 -67 65 -155 85 -194 20 -40 36 -75 36 -79 0 -4 -20 11 -43
33 -66 61 -93 76 -123 69 -45 -12 -56 -59 -48 -208 l7 -130 -30 15 c-67 35
-161 174 -208 308 -18 53 -38 87 -62 110 -33 33 -35 33 -49 15 -18 -25 -18
-55 1 -153 17 -90 20 -196 5 -224 -6 -10 -19 -19 -30 -19 -26 0 -91 77 -127
152 -17 35 -52 107 -78 161 -50 104 -87 146 -112 125 -12 -10 -13 -40 -7 -179
6 -163 3 -219 -15 -219 -5 0 -12 17 -16 37 -10 52 -22 73 -45 73 -15 0 -21 -9
-26 -40 -4 -22 -10 -43 -14 -45 -5 -3 -25 14 -46 37 -66 77 -181 344 -272 633
-170 540 -186 600 -161 616 8 5 21 7 29 4 8 -2 49 -13 90 -25z m2210 -60 c45
-24 54 -56 55 -184 0 -129 -18 -207 -71 -304 -13 -24 -21 -49 -18 -57 9 -23
-15 -82 -52 -126 -19 -22 -34 -46 -34 -51 0 -11 -61 -92 -122 -161 -35 -39
-38 -41 -62 -27 -14 7 -26 18 -26 23 0 5 22 35 49 66 133 153 219 305 266 466
57 197 23 300 -93 282 -54 -9 -165 -68 -256 -137 -44 -33 -88 -62 -98 -66 -10
-3 -18 -11 -18 -17 -1 -7 -19 -25 -41 -40 -32 -22 -44 -26 -55 -16 -33 27 -3
93 69 152 102 83 298 196 367 210 35 8 116 0 140 -13z m-650 -55 c-6 -19 -29
-54 -51 -77 -21 -23 -39 -49 -40 -58 0 -10 -3 -9 -10 6 -14 28 6 73 62 144 47
58 61 52 39 -15z m3580 -178 c21 -38 4 -61 -49 -65 -27 -2 -41 -8 -41 -17 0
-15 -139 -62 -343 -116 -106 -28 -203 -39 -226 -25 -5 4 -12 2 -15 -3 -3 -5
-26 -12 -50 -15 -79 -12 -127 15 -73 42 28 14 190 70 237 83 19 5 89 20 155
35 114 25 191 48 315 93 64 24 70 23 90 -12z m-3536 -102 c3 -8 1 -15 -4 -15
-6 0 -10 7 -10 15 0 8 2 15 4 15 2 0 6 -7 10 -15z m-34 -29 c0 -3 -4 -8 -10
-11 -5 -3 -10 -1 -10 4 0 6 5 11 10 11 6 0 10 -2 10 -4z m236 -41 c11 -17 15
-37 11 -58 -6 -37 -58 -102 -100 -123 -15 -8 -33 -26 -39 -40 -16 -34 -102
-78 -139 -70 -23 4 -28 1 -33 -20 -7 -26 -42 -46 -103 -57 -36 -7 -63 12 -63
42 0 28 23 41 81 48 44 5 60 12 85 40 17 18 36 33 42 33 7 0 12 5 12 11 0 15
73 120 101 145 36 33 100 74 115 74 8 0 21 -11 30 -25z m2104 -31 c0 -27 -43
-12 -51 18 l-7 28 29 -15 c16 -9 29 -22 29 -31z m-2336 19 c4 -10 -6 -38 -28
-72 l-34 -55 -64 -2 c-34 -1 -80 -9 -102 -18 -21 -9 -44 -16 -51 -16 -13 0
-37 68 -29 82 9 14 64 39 64 29 0 -5 -6 -11 -12 -13 -7 -3 -2 -7 11 -11 18 -4
31 1 52 24 16 17 33 28 39 24 5 -3 10 1 10 10 0 29 19 5 31 -38 l11 -42 13 43
c7 23 19 49 25 57 17 20 56 19 64 -2z m2501 -183 c14 -26 13 -27 -33 -43 -64
-23 -109 -22 -117 2 -8 25 9 66 35 84 19 13 26 13 61 -1 23 -9 46 -27 54 -42z
m134 -140 c20 0 71 -36 71 -51 0 -5 -11 -9 -24 -9 -13 0 -29 -7 -36 -15 -8 -9
-22 -12 -40 -8 -20 4 -50 -5 -100 -28 -85 -39 -105 -34 -105 26 0 39 23 62 52
51 8 -3 24 -1 35 5 14 8 23 8 31 0 16 -16 27 -13 27 8 0 10 10 25 22 33 19 13
25 13 36 2 7 -8 22 -14 31 -14z m-2659 -192 c0 -23 -7 -30 -46 -48 -44 -19
-47 -19 -60 -3 -8 10 -13 32 -11 48 2 27 6 31 42 35 33 4 41 9 44 30 l4 25 13
-30 c7 -16 13 -42 14 -57z m2283 33 c4 0 7 -6 7 -12 0 -7 -10 -9 -25 -7 -17 4
-25 1 -25 -8 0 -8 -10 -14 -22 -14 -13 0 -51 -13 -85 -29 -34 -16 -64 -27 -67
-24 -3 3 -18 -5 -34 -19 -16 -13 -63 -41 -105 -62 -43 -21 -77 -42 -77 -47 0
-5 -5 -9 -11 -9 -6 0 -24 -13 -39 -30 -15 -16 -38 -30 -49 -30 -12 0 -24 -7
-28 -15 -3 -9 -33 -34 -67 -57 -33 -22 -83 -62 -111 -88 -27 -26 -60 -51 -72
-54 -12 -4 -25 -16 -28 -27 -4 -10 -11 -19 -16 -19 -16 0 -139 -132 -139 -148
0 -8 -6 -12 -13 -9 -8 3 -28 -24 -55 -74 -24 -43 -51 -81 -62 -84 -10 -3 -24
-20 -29 -38 -6 -18 -24 -41 -41 -52 -16 -11 -30 -23 -30 -27 0 -13 54 -35 151
-62 151 -41 323 -110 348 -140 14 -17 14 -20 -9 -206 -16 -121 -6 -601 15
-755 8 -60 19 -148 25 -194 10 -86 26 -119 53 -108 12 4 16 39 21 169 3 90 6
183 6 208 -1 25 6 62 15 83 17 41 20 97 5 97 -5 0 -10 11 -10 25 0 16 4 23 13
19 18 -7 32 193 15 213 -8 10 -7 18 4 31 22 26 23 166 1 203 -14 24 -15 34 -6
60 12 31 8 59 -8 59 -5 0 -9 9 -9 21 0 11 4 18 9 14 6 -3 14 1 18 10 5 8 107
53 228 100 337 131 343 134 783 349 298 145 411 205 407 215 -17 45 38 72 96
48 19 -7 39 -12 46 -10 15 5 35 -31 27 -51 -4 -11 -1 -16 10 -16 9 0 16 -6 16
-13 0 -7 9 -18 20 -25 11 -7 20 -23 20 -37 0 -14 7 -28 15 -31 8 -4 15 -14 15
-24 0 -10 6 -23 14 -29 23 -19 195 -343 268 -506 88 -195 88 -194 2 -446 -82
-242 -78 -233 -108 -214 -14 9 -31 13 -42 8 -23 -8 -327 -191 -404 -243 -121
-81 -318 -194 -565 -325 -375 -199 -714 -411 -879 -550 -72 -60 -83 -66 -115
-62 -63 8 -704 300 -959 437 -142 76 -385 220 -612 363 -165 104 -329 196
-586 327 -60 31 -126 68 -145 82 -18 14 -47 28 -62 32 -49 12 -73 46 -86 122
-25 141 -51 337 -81 604 -17 151 -39 341 -50 421 -19 135 -19 151 -5 225 8 43
18 114 21 157 4 43 10 79 13 81 4 3 24 -30 46 -72 51 -97 134 -188 186 -203
32 -10 42 -9 63 5 37 24 57 69 63 146 3 38 10 67 14 64 5 -2 23 -32 41 -65 62
-117 157 -199 215 -185 38 10 53 59 53 181 0 67 4 105 11 105 5 0 34 -22 62
-48 106 -98 367 -263 500 -316 45 -18 120 -56 167 -85 47 -29 128 -73 180 -98
103 -50 351 -143 380 -143 21 0 44 27 102 120 103 165 303 383 483 526 179
142 411 281 512 307 42 10 147 15 186 8z m527 -17 c0 -13 7 -15 30 -11 28 6
29 5 20 -18 -6 -16 -5 -25 3 -28 20 -6 -29 -27 -90 -38 -32 -5 -105 -24 -162
-41 l-103 -32 -19 23 c-11 13 -19 33 -19 45 0 17 2 18 10 6 9 -13 12 -13 25 4
10 13 21 17 40 12 21 -5 28 -3 32 13 4 17 8 18 25 8 16 -10 22 -8 39 12 14 17
22 21 32 13 9 -8 21 -7 41 3 16 8 34 15 41 15 7 0 18 7 25 15 16 20 30 19 30
-1z m1545 -84 c3 -5 14 -10 23 -10 10 0 23 -9 30 -20 7 -11 18 -20 26 -20 13
0 46 -56 46 -79 0 -6 8 -11 18 -11 9 0 24 -5 32 -11 11 -7 5 -9 -25 -5 -22 3
-71 8 -110 12 -69 6 -70 6 -45 -12 35 -25 40 -34 40 -75 0 -67 -8 -70 -185
-70 -51 0 -164 30 -220 58 -89 45 -109 106 -52 160 42 40 89 64 157 79 68 15
256 18 265 4z m-4342 -81 c12 9 18 -3 35 -71 12 -45 19 -85 16 -87 -2 -3 -17
5 -32 17 -15 12 -41 32 -59 45 -34 23 -45 60 -29 88 8 14 14 15 32 7 17 -8 27
-8 37 1z m3048 -92 c-5 -5 -47 -15 -95 -23 -47 -8 -103 -22 -124 -31 -20 -9
-57 -18 -82 -19 -25 -1 -70 -13 -100 -28 -71 -34 -108 -34 -116 -2 -10 41 -1
61 29 64 15 2 27 7 27 12 0 5 7 7 16 3 8 -3 25 -1 37 5 12 6 38 13 57 14 19 2
34 8 33 14 -1 7 14 11 39 11 27 0 44 6 50 17 6 11 17 14 34 10 16 -4 24 -2 24
6 0 7 8 10 20 7 11 -3 23 -1 26 5 3 5 14 8 24 5 10 -2 24 -1 31 4 15 9 82 -61
70 -74z m17 -91 c7 -4 19 -2 27 4 12 10 15 9 15 -4 0 -9 7 -16 16 -16 11 0 14
5 10 17 -6 15 -4 15 14 -2 24 -22 26 -37 4 -28 -12 4 -15 2 -12 -8 2 -8 17
-15 31 -17 16 -2 27 -10 27 -18 0 -19 -47 -39 -125 -53 -33 -6 -80 -18 -105
-26 -25 -8 -85 -23 -135 -34 -49 -12 -110 -26 -134 -33 -42 -12 -44 -12 -67
15 -27 32 -30 47 -11 47 8 0 22 9 31 19 15 16 22 18 37 8 14 -9 25 -8 51 5 19
9 59 21 89 27 57 12 119 44 119 61 0 5 9 10 20 10 10 0 24 8 29 18 10 18 46
22 69 8z m-868 -16 c30 -10 56 -23 58 -29 5 -14 -57 -51 -85 -51 -31 0 -73
-21 -73 -37 0 -7 -3 -13 -7 -14 -29 -3 -47 -10 -62 -23 -10 -9 -25 -16 -35
-16 -9 0 -15 -4 -11 -9 3 -6 -3 -14 -12 -20 -13 -7 -2 -8 39 -4 68 7 103 -1
113 -24 10 -24 17 -62 17 -91 0 -25 -38 -72 -58 -72 -6 0 -14 -9 -17 -21 -3
-12 -10 -18 -15 -15 -6 3 -12 -1 -16 -9 -3 -8 -12 -15 -20 -15 -9 0 -20 -9
-26 -20 -6 -11 -21 -20 -35 -20 -14 0 -26 -7 -30 -19 -7 -23 -57 -45 -85 -38
-10 3 -25 -2 -31 -10 -52 -61 -186 -58 -236 7 -45 57 34 195 186 327 95 82
338 243 365 243 12 -1 46 -9 76 -20z m543 -257 c-7 -2 -19 -2 -25 0 -7 3 -2 5
12 5 14 0 19 -2 13 -5z m2032 -242 c15 -82 15 -125 6 -335 -12 -264 -25 -346
-71 -445 -34 -72 -56 -101 -77 -101 -10 0 -13 22 -13 93 -1 139 -40 231 -86
202 -9 -6 -43 -76 -75 -155 -32 -80 -76 -178 -96 -219 -37 -73 -125 -182 -137
-170 -4 3 1 39 10 80 20 93 23 222 6 272 -8 21 -25 45 -38 54 -40 26 -64 -1
-151 -169 -121 -232 -236 -419 -320 -519 -69 -82 -126 -129 -141 -115 -13 14
23 167 93 396 42 135 89 299 105 364 16 66 37 131 48 145 10 14 47 37 83 51
77 32 234 120 292 163 23 18 77 54 121 81 131 82 351 308 398 411 6 14 15 22
19 18 5 -5 15 -51 24 -102z m-3095 -1041 c0 -5 -5 -10 -11 -10 -5 0 -7 5 -4
10 3 6 8 10 11 10 2 0 4 -4 4 -10z m-4191 -34 c15 -17 5 -23 -34 -21 -19 1
-31 8 -33 18 -4 22 50 24 67 3z m491 -145 c0 -6 -4 -13 -10 -16 -5 -3 -10 1
-10 9 0 9 5 16 10 16 6 0 10 -4 10 -9z m170 -40 c0 -6 -4 -13 -10 -16 -5 -3
-10 1 -10 9 0 9 5 16 10 16 6 0 10 -4 10 -9z m1635 -571 c-3 -5 -11 -10 -16
-10 -6 0 -7 5 -4 10 3 6 11 10 16 10 6 0 7 -4 4 -10z m519 -196 c4 -10 1 -14
-6 -12 -15 5 -23 28 -10 28 5 0 13 -7 16 -16z"/>
<path d="M5827 7333 c-49 -94 14 -164 104 -117 31 16 50 49 41 72 -3 10 -17
12 -53 7 -42 -6 -50 -4 -55 12 -19 59 -20 60 -37 26z"/>
<path d="M6093 7213 c-16 -53 -21 -58 -49 -61 -39 -4 -63 -29 -70 -73 -7 -46
13 -72 55 -71 66 2 100 46 122 155 7 36 7 60 0 80 -17 44 -38 33 -58 -30z"/>
<path d="M5865 6979 c-22 -35 33 -85 86 -77 38 5 34 34 -8 62 -40 28 -68 33
-78 15z"/>
<path d="M3610 5103 c0 -13 29 -38 35 -31 3 3 -4 13 -15 23 -11 10 -20 13 -20
8z"/>
<path d="M8213 4914 c-13 -8 -6 -14 33 -31 107 -46 174 -55 129 -19 -24 20
-28 27 -17 37 6 7 12 17 12 21 0 12 -140 5 -157 -8z"/>
<path d="M8448 4913 c7 -3 16 -2 19 1 4 3 -2 6 -13 5 -11 0 -14 -3 -6 -6z"/>
<path d="M6020 4524 c0 -14 3 -14 15 -4 8 7 15 14 15 16 0 2 -7 4 -15 4 -8 0
-15 -7 -15 -16z"/>
<path d="M6136 4455 c-11 -8 -32 -15 -47 -15 -15 0 -30 -4 -34 -10 -3 -5 -12
-7 -20 -3 -8 3 -15 0 -15 -6 0 -6 -7 -11 -16 -11 -9 0 -31 -12 -49 -27 -18
-16 -49 -41 -69 -56 -20 -15 -36 -33 -36 -39 0 -17 88 1 145 29 62 32 181 118
189 138 7 20 -23 19 -48 0z"/>
<path d="M8092 6478 c-20 -20 -13 -60 15 -90 15 -15 31 -28 35 -28 19 0 107
-99 125 -141 11 -24 91 -152 178 -284 195 -295 475 -744 475 -759 0 -7 11 -27
25 -46 14 -19 25 -41 25 -49 0 -9 17 -52 39 -96 52 -107 145 -348 181 -471 17
-54 37 -148 45 -209 25 -176 25 -179 37 -167 11 11 -6 235 -22 293 -6 19 -10
55 -10 80 0 32 -5 49 -15 53 -9 3 -15 18 -15 35 0 16 -5 33 -10 36 -6 4 -8 14
-5 24 3 9 -1 41 -9 71 -8 30 -12 58 -10 62 3 5 -2 18 -10 30 -9 12 -16 36 -16
54 0 23 -6 34 -25 42 -27 13 -34 42 -10 42 23 0 18 16 -12 39 -22 18 -24 25
-16 44 12 26 -10 82 -29 71 -15 -9 -28 15 -28 54 0 18 -7 44 -16 57 -9 14 -14
32 -10 40 3 8 1 15 -4 15 -6 0 -10 5 -10 12 0 6 -11 34 -24 62 -13 28 -36 76
-50 106 -31 66 -84 162 -94 170 -9 6 -73 112 -97 160 -10 19 -43 68 -74 109
-31 40 -65 87 -76 105 -11 17 -47 67 -80 111 -33 44 -73 99 -90 122 -55 76
-130 161 -155 174 -14 8 -43 28 -64 46 -41 34 -74 41 -94 21z m852 -1123 c-4
-8 -8 -15 -10 -15 -2 0 -4 7 -4 15 0 8 4 15 10 15 5 0 7 -7 4 -15z"/>
<path d="M1840 3096 c0 -16 46 -34 57 -22 4 3 -1 6 -10 6 -8 0 -23 7 -31 16
-14 14 -16 14 -16 0z"/>
</g>
</svg>
